<svg width="92" height="21" viewBox="0 0 92 21" fill="none" xmlns="http://www.w3.org/2000/svg">
<path d="M1.81818 3.36362V15H0.409091V3.36362H1.81818ZM4.0071 4.61362V3.36362H12.7344V4.61362H9.07528V15H7.66619V4.61362H4.0071ZM22.5455 3.36362H23.9545V11.0682C23.9545 11.8636 23.767 12.5738 23.392 13.1988C23.0208 13.8201 22.4962 14.3106 21.8182 14.6704C21.1402 15.0265 20.3447 15.2045 19.4318 15.2045C18.5189 15.2045 17.7235 15.0265 17.0455 14.6704C16.3674 14.3106 15.8409 13.8201 15.4659 13.1988C15.0947 12.5738 14.9091 11.8636 14.9091 11.0682V3.36362H16.3182V10.9545C16.3182 11.5227 16.4432 12.0284 16.6932 12.4716C16.9432 12.911 17.2992 13.2576 17.7614 13.5113C18.2273 13.7613 18.7841 13.8863 19.4318 13.8863C20.0795 13.8863 20.6364 13.7613 21.1023 13.5113C21.5682 13.2576 21.9242 12.911 22.1705 12.4716C22.4205 12.0284 22.5455 11.5227 22.5455 10.9545V3.36362ZM33.1321 6.27271C33.0639 5.69695 32.7874 5.24998 32.3026 4.9318C31.8177 4.61362 31.223 4.45453 30.5185 4.45453C30.0033 4.45453 29.5526 4.53786 29.1662 4.70453C28.7836 4.8712 28.4844 5.10036 28.2685 5.39203C28.0563 5.6837 27.9503 6.01514 27.9503 6.38635C27.9503 6.69695 28.0241 6.964 28.1719 7.18748C28.3234 7.40718 28.5166 7.59089 28.7514 7.73862C28.9863 7.88256 29.2325 8.00188 29.4901 8.09658C29.7476 8.18748 29.9844 8.26135 30.2003 8.31817L31.3821 8.63635C31.6851 8.71589 32.0223 8.82574 32.3935 8.96589C32.7685 9.10605 33.1264 9.29733 33.4673 9.53976C33.812 9.77839 34.0961 10.0852 34.3196 10.4602C34.5431 10.8352 34.6548 11.2954 34.6548 11.8409C34.6548 12.4697 34.4901 13.0379 34.1605 13.5454C33.8348 14.053 33.3575 14.4564 32.7287 14.7557C32.1037 15.0549 31.3442 15.2045 30.4503 15.2045C29.617 15.2045 28.8954 15.0701 28.2855 14.8011C27.6795 14.5322 27.2022 14.1572 26.8537 13.6761C26.509 13.1951 26.3139 12.6363 26.2685 12H27.723C27.7609 12.4394 27.9086 12.803 28.1662 13.0909C28.4276 13.375 28.7571 13.5871 29.1548 13.7273C29.5563 13.8636 29.9882 13.9318 30.4503 13.9318C30.9882 13.9318 31.4711 13.8447 31.8991 13.6704C32.3272 13.4924 32.6662 13.2462 32.9162 12.9318C33.1662 12.6136 33.2912 12.2424 33.2912 11.8182C33.2912 11.4318 33.1832 11.1174 32.9673 10.875C32.7514 10.6326 32.4673 10.4356 32.1151 10.2841C31.7628 10.1326 31.3821 9.99998 30.973 9.88635L29.5412 9.47726C28.6321 9.21589 27.9124 8.84279 27.3821 8.35794C26.8518 7.87309 26.5866 7.23862 26.5866 6.45453C26.5866 5.80301 26.7628 5.23483 27.1151 4.74998C27.4711 4.26135 27.9484 3.88256 28.5469 3.61362C29.1491 3.34089 29.8215 3.20453 30.5639 3.20453C31.3139 3.20453 31.9806 3.339 32.5639 3.60794C33.1473 3.87309 33.6094 4.23673 33.9503 4.69885C34.295 5.16097 34.4768 5.68559 34.4957 6.27271H33.1321Z" fill="#959595"/>
<path d="M36.5739 15V3.36362H41.1648C42.0473 3.36362 42.7992 3.53218 43.4205 3.8693C44.0417 4.20264 44.5152 4.66665 44.8409 5.26135C45.1705 5.85226 45.3352 6.53408 45.3352 7.3068C45.3352 8.07953 45.1686 8.76135 44.8352 9.35226C44.5019 9.94317 44.0189 10.4034 43.3864 10.7329C42.7576 11.0625 41.9962 11.2273 41.1023 11.2273H38.1761V9.25567H40.7045C41.178 9.25567 41.5682 9.17423 41.875 9.01135C42.1856 8.84468 42.4167 8.61551 42.5682 8.32385C42.7235 8.02839 42.8011 7.68938 42.8011 7.3068C42.8011 6.92044 42.7235 6.58332 42.5682 6.29544C42.4167 6.00377 42.1856 5.77839 41.875 5.6193C41.5644 5.45642 41.1705 5.37498 40.6932 5.37498H39.0341V15H36.5739ZM47.5952 15H44.9588L48.9759 3.36362H52.1463L56.1577 15H53.5213L50.6065 6.02271H50.5156L47.5952 15ZM47.4304 10.4261H53.6577V12.3466H47.4304V10.4261ZM55.6889 3.36362H58.4446L61.098 8.37498H61.2116L63.8651 3.36362H66.6207L62.3764 10.8863V15H59.9332V10.8863L55.6889 3.36362Z" fill="white"/>
<path fill-rule="evenodd" clip-rule="evenodd" d="M76.2028 13.8617L76.1995 13.8662L76.1963 13.8707C76.0183 14.1227 75.6196 14.1968 75.3077 13.9765C75.0581 13.8002 74.9831 13.4074 75.1957 13.097C75.5128 12.6927 75.7431 12.2201 75.8944 11.7581C76.0519 11.2771 76.1251 10.7305 76.1223 10.1944C76.1194 9.65838 76.0404 9.11262 75.8778 8.63333C75.7216 8.17295 75.4862 7.7028 75.1648 7.30194C74.9489 6.99377 75.0198 6.60017 75.2675 6.42122C75.577 6.19769 75.9765 6.26749 76.1571 6.51761L76.1604 6.5221L76.1637 6.5265C76.5638 7.05405 76.8919 7.64018 77.088 8.21523C77.2944 8.89171 77.4259 9.54608 77.4293 10.1875C77.4329 10.8624 77.3684 11.5013 77.1207 12.1302C76.851 12.8151 76.5898 13.34 76.2028 13.8617ZM79.0954 15.1145L79.1032 15.1034L79.1104 15.0919C79.9971 13.6713 80.5085 11.957 80.499 10.1711C80.4895 8.3857 79.9601 6.67737 79.0587 5.26646C78.8634 4.95669 78.9511 4.59045 79.2804 4.35261C79.5015 4.19288 79.9166 4.24944 80.1629 4.57952C81.1806 6.19416 81.7953 8.146 81.8061 10.1642C81.8172 12.2512 81.2238 14.1397 80.2224 15.7661C79.9908 16.085 79.6361 16.1743 79.3303 15.9936C78.9988 15.7507 78.9382 15.337 79.0954 15.1145ZM84.2861 2.45724L84.2948 2.47449L84.3049 2.49097C85.6839 4.73919 86.4502 7.33243 86.4652 10.1394C86.4801 12.945 85.7421 15.5451 84.3884 17.8072C84.1808 18.1409 83.8304 18.235 83.4752 18.0697C83.1519 17.859 83.065 17.5098 83.2339 17.1571C84.3852 15.1125 85.1011 12.703 85.0875 10.1467C85.074 7.60176 84.4085 5.19618 83.1569 3.15136C82.9875 2.80221 83.0714 2.45448 83.3909 2.24137C83.7763 2.05725 84.1518 2.1922 84.2861 2.45724ZM88.3691 0.317663L88.3751 0.329447L88.3817 0.340883C90.0528 3.22941 91.0346 6.53184 91.0536 10.1149C91.0727 13.6943 90.1281 17.0039 88.491 19.9079C88.2831 20.2378 87.9343 20.3302 87.5808 20.1656C87.2585 19.9556 87.1712 19.608 87.3379 19.2564C88.915 16.5648 89.7643 13.4463 89.7466 10.1219C89.7288 6.78887 88.7717 3.68251 87.2427 1.0174C87.0511 0.628355 87.1861 0.247321 87.4535 0.111831C87.846 -0.0870443 88.2325 0.0479557 88.3691 0.317663Z" fill="white"/>
</svg>
